<svg width="46" height="27" viewBox="0 0 46 27" fill="none" xmlns="http://www.w3.org/2000/svg">
<g clip-path="url(#clip0_116_450)">
<path fill-rule="evenodd" clip-rule="evenodd" d="M35.4795 9.84948L22.9394 22.9659L15.9901 16.5106L16.7086 15.504L21.798 20.2079L21.8617 20.2678C22.095 20.48 22.403 20.591 22.718 20.5762C23.0331 20.5615 23.3294 20.4223 23.5419 20.1892L23.9498 19.7252L25.8845 17.5884L34.428 8.87651L35.4795 9.84948ZM35.9997 16.3834V13.8462C35.9979 13.825 35.9979 13.8037 35.9997 13.7825C36.0446 12.6599 36.7968 12.2857 37.8109 12.6112C37.8661 12.6304 37.9179 12.6581 37.9644 12.6936C40.524 14.7031 42.9078 16.7089 45.4488 18.7185L45.4824 18.7522C45.6632 18.887 45.8018 19.0705 45.882 19.2813C45.9622 19.4921 45.9807 19.7213 45.9353 19.9422C45.829 20.3141 45.5977 20.6379 45.2804 20.859L38.4022 26.4274C37.1897 27.3817 35.9249 27.2021 35.9249 25.447C35.9249 24.6649 35.9249 23.8753 35.9249 23.0931H26.1577L32.5868 16.3572L35.9997 16.3834ZM11.4247 12.3717C11.4247 12.9854 11.4808 13.7414 11.4247 14.3401C11.4119 14.5693 11.3692 14.7957 11.2974 15.0137C11.1755 15.4053 10.9233 15.7433 10.5827 15.9717C10.2484 16.1842 9.85528 16.2851 9.46 16.2599C9.189 16.2409 8.92197 16.1843 8.66665 16.0915C8.60099 16.069 8.53718 16.0415 8.4758 16.0091C8.41623 15.9752 8.35875 15.9377 8.30365 15.8969C7.07247 14.9314 5.79638 13.8911 4.51654 12.8545C3.32652 11.8852 2.13276 10.916 0.804279 9.86071L0.729435 9.79335C0.452431 9.56389 0.236459 9.2695 0.100744 8.93638L0.0782911 8.86154C-0.0130846 8.5616 -0.0246928 8.24301 0.0446113 7.93721C0.113631 7.65789 0.241185 7.3964 0.418832 7.17006C0.579379 6.9583 0.766818 6.76835 0.97642 6.60499C3.2891 4.86486 5.54565 2.83659 7.85833 1.04033C8.36535 0.604443 9.00198 0.347951 9.66956 0.310603C9.9275 0.30795 10.1829 0.361587 10.418 0.467775C10.658 0.577654 10.8684 0.743138 11.0317 0.95052C11.3667 1.4222 11.5329 1.9931 11.5032 2.57089V4.2025H20.8176L19.4367 5.64699H10.7623C10.6676 5.64601 10.5741 5.62633 10.487 5.58909C10.4 5.55184 10.3211 5.49775 10.2551 5.42994C10.189 5.36213 10.137 5.28192 10.102 5.19394C10.067 5.10595 10.0498 5.01193 10.0513 4.91726C10.0513 4.37838 10.0513 3.83202 10.0513 3.29314V2.57089C10.0757 2.31631 10.018 2.06058 9.88661 1.84116C9.86538 1.81349 9.83862 1.79055 9.80802 1.7738C9.7639 1.7569 9.71676 1.74925 9.66956 1.75135C9.32435 1.79054 9.0006 1.93866 8.74523 2.17422L1.87081 7.73888C1.76096 7.82133 1.66277 7.91826 1.57891 8.02703C1.52623 8.09181 1.48796 8.16708 1.46665 8.24782C1.45327 8.30442 1.45327 8.36336 1.46665 8.41996V8.45364C1.51798 8.56908 1.59473 8.67142 1.69118 8.75301C2.90366 9.70354 4.16478 10.7252 5.43338 11.7468C6.70199 12.7684 7.83962 13.704 9.17559 14.7405C9.28977 14.7768 9.40785 14.7994 9.52736 14.8079C9.62484 14.8173 9.72287 14.7964 9.80802 14.748C9.87763 14.6978 9.92784 14.6251 9.95022 14.5422C9.97902 14.4486 9.99661 14.3518 10.0026 14.2541V11.6345C10.0055 11.4491 10.0799 11.272 10.2103 11.1401C10.3407 11.0083 10.517 10.932 10.7024 10.9272H14.3885L13.0675 12.3119L13.0151 12.3717H11.4247ZM35.1353 6.4553L22.5989 19.5717L15.6496 13.1164L28.1897 0L35.1353 6.4553ZM27.2205 9.22453C27.3648 9.62568 27.3869 10.0606 27.2841 10.4743C27.1812 10.888 26.958 11.262 26.6426 11.5488C26.3272 11.8357 25.9338 12.0225 25.5122 12.0858C25.0906 12.1491 24.6598 12.086 24.2741 11.9044C23.8884 11.7228 23.5652 11.4309 23.3453 11.0656C23.1255 10.7003 23.019 10.2781 23.0392 9.85223C23.0593 9.42639 23.2053 9.01609 23.4587 8.67323C23.712 8.33036 24.0614 8.07032 24.4625 7.92599C24.7288 7.83015 25.0115 7.78772 25.2942 7.80111C25.577 7.81451 25.8543 7.88346 26.1104 8.00404C26.3665 8.12463 26.5964 8.29447 26.7869 8.50388C26.9773 8.7133 27.1247 8.95817 27.2205 9.22453ZM32.003 7.72765L23.6242 16.3422C23.3515 16.0902 22.99 15.9566 22.619 15.9707C22.2479 15.9847 21.8976 16.1452 21.6446 16.417L18.8978 13.8686C19.1498 13.5959 19.2834 13.2344 19.2694 12.8633C19.2553 12.4923 19.0948 12.1419 18.823 11.889L27.2018 3.24823C27.3368 3.37459 27.4954 3.47295 27.6687 3.53763C27.8419 3.60231 28.0262 3.63203 28.2109 3.62507C28.3957 3.61811 28.5773 3.57461 28.7451 3.49709C28.913 3.41956 29.0638 3.30954 29.1889 3.17339L31.9394 5.72557C31.6868 5.99846 31.5524 6.36027 31.5657 6.73193C31.5791 7.10358 31.739 7.45485 32.0105 7.70894L32.003 7.72765Z" fill="#007CEE"/>
</g>
<defs>
<clipPath id="clip0_116_450">
<rect width="45.9842" height="27" fill="white"/>
</clipPath>
</defs>
</svg>
