<svg width="53" height="98" viewBox="0 0 53 98" fill="none" xmlns="http://www.w3.org/2000/svg">
<path d="M0.00941107 95.8184L2.18237 97.9914L10.5038 89.67L8.33079 87.497L0.00941107 95.8184Z" fill="#E9EAED"/>
<path d="M8.32172 97.997L10.4947 95.824L2.17331 87.5026L0.000341192 89.6756L8.32172 97.997Z" fill="#E9EAED"/>
<path d="M0.00941107 73.9457L2.18237 76.1187L10.5038 67.7973L8.33081 65.6243L0.00941107 73.9457Z" fill="#E9EAED"/>
<path d="M8.32369 76.1243L10.4967 73.9513L2.17525 65.6299L0.00228733 67.8029L8.32369 76.1243Z" fill="#E9EAED"/>
<path d="M0.00744319 52.0627L2.18041 54.2357L10.5018 45.9143L8.32882 43.7413L0.00744319 52.0627Z" fill="#E9EAED"/>
<path d="M8.32369 54.2314L10.4967 52.0584L2.17527 43.7371L0.00230907 45.91L8.32369 54.2314Z" fill="#E9EAED"/>
<path d="M0.00547531 30.19L2.17844 32.363L10.4998 24.0416L8.32686 21.8686L0.00547531 30.19Z" fill="#E9EAED"/>
<path d="M8.32566 32.3587L10.4986 30.1857L2.17724 21.8644L0.00427695 24.0373L8.32566 32.3587Z" fill="#E9EAED"/>
<path d="M0.00744319 8.32467L2.18041 10.4976L10.5018 2.17626L8.32882 0.00329301L0.00744319 8.32467Z" fill="#E9EAED"/>
<path d="M8.32369 10.5032L10.4967 8.33027L2.17527 0.008887L0.00230907 2.18185L8.32369 10.5032Z" fill="#E9EAED"/>
<path d="M22.0122 95.8251L24.1852 97.998L32.5066 89.6767L30.3336 87.5037L22.0122 95.8251Z" fill="#E9EAED"/>
<path d="M30.3127 97.9999L32.4857 95.827L24.1643 87.5056L21.9914 89.6786L30.3127 97.9999Z" fill="#E9EAED"/>
<path d="M22.0103 73.9425L24.1832 76.1155L32.5046 67.7941L30.3317 65.6211L22.0103 73.9425Z" fill="#E9EAED"/>
<path d="M30.3147 76.1275L32.4877 73.9545L24.1663 65.6331L21.9933 67.8061L30.3147 76.1275Z" fill="#E9EAED"/>
<path d="M22.0103 52.0597L24.1832 54.2327L32.5046 45.9113L30.3317 43.7384L22.0103 52.0597Z" fill="#E9EAED"/>
<path d="M30.3265 54.2447L32.4995 52.0717L24.1781 43.7504L22.0051 45.9233L30.3265 54.2447Z" fill="#E9EAED"/>
<path d="M22.0083 30.187L24.1813 32.36L32.5026 24.0386L30.3297 21.8657L22.0083 30.187Z" fill="#E9EAED"/>
<path d="M30.3167 32.372L32.4896 30.199L24.1683 21.8777L21.9953 24.0506L30.3167 32.372Z" fill="#E9EAED"/>
<path d="M22.0103 8.32148L24.1832 10.4944L32.5046 2.17306L30.3317 9.79257e-05L22.0103 8.32148Z" fill="#E9EAED"/>
<path d="M30.3265 10.5064L32.4995 8.33346L24.1781 0.0120848L22.0051 2.18505L30.3265 10.5064Z" fill="#E9EAED"/>
<path d="M42.4841 95.8238L44.657 97.9968L52.9784 89.6754L50.8054 87.5025L42.4841 95.8238Z" fill="#E9EAED"/>
<path d="M50.7964 97.9916L52.9693 95.8186L44.6479 87.4972L42.475 89.6702L50.7964 97.9916Z" fill="#E9EAED"/>
<path d="M42.4821 73.9511L44.6551 76.1241L52.9765 67.8027L50.8035 65.6297L42.4821 73.9511Z" fill="#E9EAED"/>
<path d="M50.7964 76.1189L52.9693 73.9459L44.6479 65.6245L42.475 67.7975L50.7964 76.1189Z" fill="#E9EAED"/>
<path d="M42.4703 52.0683L44.6432 54.2413L52.9646 45.9199L50.7917 43.747L42.4703 52.0683Z" fill="#E9EAED"/>
<path d="M50.7964 54.2361L52.9693 52.0631L44.6479 43.7417L42.475 45.9147L50.7964 54.2361Z" fill="#E9EAED"/>
<path d="M42.4801 30.1956L44.6531 32.3686L52.9745 24.0472L50.8015 21.8743L42.4801 30.1956Z" fill="#E9EAED"/>
<path d="M50.8003 32.3634L52.9733 30.1904L44.6519 21.869L42.4789 24.042L50.8003 32.3634Z" fill="#E9EAED"/>
<path d="M42.4821 8.33008L44.6551 10.503L52.9764 2.18167L50.8035 0.00870195L42.4821 8.33008Z" fill="#E9EAED"/>
<path d="M50.7983 10.4978L52.9713 8.32486L44.6499 0.00347534L42.477 2.17644L50.7983 10.4978Z" fill="#E9EAED"/>
</svg>
