<svg width="114" height="114" viewBox="0 0 114 114" fill="none" xmlns="http://www.w3.org/2000/svg">
<path d="M58.3028 0H55.6973V6.51371H58.3028V0Z" fill="#E9EAED"/>
<path d="M58.3028 0H55.6973V6.51371H58.3028V0Z" fill="#E9EAED"/>
<path d="M58.3028 107.486H55.6973V114H58.3028V107.486Z" fill="#E9EAED"/>
<path d="M6.51371 55.6972H0V58.3027H6.51371V55.6972Z" fill="#E9EAED"/>
<path d="M6.51371 55.6972H0V58.3027H6.51371V55.6972Z" fill="#E9EAED"/>
<path d="M114 55.6972H107.486V58.3027H114V55.6972Z" fill="#E9EAED"/>
<path d="M17.6266 15.7824L15.7842 17.6247L20.3901 22.2306L22.2325 20.3883L17.6266 15.7824Z" fill="#E9EAED"/>
<path d="M17.6266 15.7824L15.7842 17.6247L20.3901 22.2306L22.2325 20.3883L17.6266 15.7824Z" fill="#E9EAED"/>
<path d="M93.6284 91.7996L91.786 93.642L96.3919 98.2478L98.2342 96.4055L93.6284 91.7996Z" fill="#E9EAED"/>
<path d="M20.3727 91.761L15.7676 96.3677L17.6103 98.2097L22.2153 93.603L20.3727 91.761Z" fill="#E9EAED"/>
<path d="M20.3727 91.761L15.7676 96.3677L17.6103 98.2097L22.2153 93.603L20.3727 91.761Z" fill="#E9EAED"/>
<path d="M96.3676 15.75L91.7625 20.3567L93.6052 22.1987L98.2103 17.592L96.3676 15.75Z" fill="#E9EAED"/>
<path d="M45.2832 1.21425L42.7462 1.80788L44.2303 8.15028L46.7673 7.55664L45.2832 1.21425Z" fill="#E9EAED"/>
<path d="M45.2832 1.21425L42.7462 1.80788L44.2303 8.15028L46.7673 7.55664L45.2832 1.21425Z" fill="#E9EAED"/>
<path d="M69.7654 105.869L67.2284 106.463L68.7125 112.806L71.2495 112.212L69.7654 105.869Z" fill="#E9EAED"/>
<path d="M7.54558 67.2026L1.20371 68.6889L1.79823 71.2257L8.1401 69.7393L7.54558 67.2026Z" fill="#E9EAED"/>
<path d="M7.54558 67.2026L1.20371 68.6889L1.79823 71.2257L8.1401 69.7393L7.54558 67.2026Z" fill="#E9EAED"/>
<path d="M112.203 42.7736L105.861 44.2588L106.455 46.7957L112.797 45.3105L112.203 42.7736Z" fill="#E9EAED"/>
<path d="M9.24188 25.814L7.86813 28.0279L13.4029 31.4622L14.7766 29.2483L9.24188 25.814Z" fill="#E9EAED"/>
<path d="M9.24188 25.814L7.86813 28.0279L13.4029 31.4622L14.7766 29.2483L9.24188 25.814Z" fill="#E9EAED"/>
<path d="M100.567 82.4822L99.1932 84.6961L104.728 88.1305L106.102 85.9166L100.567 82.4822Z" fill="#E9EAED"/>
<path d="M29.2563 99.181L25.821 104.715L28.0346 106.089L31.47 100.555L29.2563 99.181Z" fill="#E9EAED"/>
<path d="M29.2563 99.181L25.821 104.715L28.0346 106.089L31.47 100.555L29.2563 99.181Z" fill="#E9EAED"/>
<path d="M85.9499 7.87248L82.5145 13.4066L84.7282 14.7808L88.1635 9.24662L85.9499 7.87248Z" fill="#E9EAED"/>
<path d="M37.1843 3.50652L34.7626 4.46778L37.1658 10.522L39.5875 9.56072L37.1843 3.50652Z" fill="#E9EAED"/>
<path d="M37.1843 3.50652L34.7626 4.46778L37.1658 10.522L39.5875 9.56072L37.1843 3.50652Z" fill="#E9EAED"/>
<path d="M76.8362 103.399L74.4145 104.36L76.8176 110.415L79.2393 109.453L76.8362 103.399Z" fill="#E9EAED"/>
<path d="M9.59779 74.3906L3.54359 76.7937L4.50485 79.2154L10.5591 76.8123L9.59779 74.3906Z" fill="#E9EAED"/>
<path d="M9.59779 74.3906L3.54359 76.7937L4.50485 79.2154L10.5591 76.8123L9.59779 74.3906Z" fill="#E9EAED"/>
<path d="M109.497 34.7357L103.442 37.1389L104.404 39.5605L110.458 37.1574L109.497 34.7357Z" fill="#E9EAED"/>
<path d="M5.20691 33.2382L4.17383 35.6301L10.1536 38.2128L11.1867 35.8209L5.20691 33.2382Z" fill="#E9EAED"/>
<path d="M5.20691 33.2382L4.17383 35.6301L10.1536 38.2128L11.1867 35.8209L5.20691 33.2382Z" fill="#E9EAED"/>
<path d="M103.888 75.8356L102.855 78.2275L108.835 80.8103L109.868 78.4184L103.888 75.8356Z" fill="#E9EAED"/>
<path d="M35.802 102.846L33.2203 108.826L35.6124 109.859L38.1941 103.878L35.802 102.846Z" fill="#E9EAED"/>
<path d="M35.802 102.846L33.2203 108.826L35.6124 109.859L38.1941 103.878L35.802 102.846Z" fill="#E9EAED"/>
<path d="M78.4191 4.1622L75.8374 10.1424L78.2295 11.1751L80.8112 5.19488L78.4191 4.1622Z" fill="#E9EAED"/>
<path d="M25.5153 9.45131L23.3764 10.939L27.0957 16.2865L29.2347 14.7987L25.5153 9.45131Z" fill="#E9EAED"/>
<path d="M25.5153 9.45131L23.3764 10.939L27.0957 16.2865L29.2347 14.7987L25.5153 9.45131Z" fill="#E9EAED"/>
<path d="M86.8936 97.6878L84.7546 99.1756L88.4739 104.523L90.6129 103.035L86.8936 97.6878Z" fill="#E9EAED"/>
<path d="M14.8107 84.7825L9.46328 88.5019L10.951 90.6408L16.2984 86.9215L14.8107 84.7825Z" fill="#E9EAED"/>
<path d="M14.8107 84.7825L9.46328 88.5019L10.951 90.6408L16.2984 86.9215L14.8107 84.7825Z" fill="#E9EAED"/>
<path d="M103.056 23.3879L97.7086 27.1072L99.1964 29.2462L104.544 25.5269L103.056 23.3879Z" fill="#E9EAED"/>
<path d="M1.14064 45.6525L0.680143 48.217L7.09131 49.3682L7.55181 46.8038L1.14064 45.6525Z" fill="#E9EAED"/>
<path d="M1.14064 45.6525L0.680143 48.217L7.09131 49.3682L7.55181 46.8038L1.14064 45.6525Z" fill="#E9EAED"/>
<path d="M106.934 64.6537L106.473 67.2182L112.884 68.3694L113.345 65.8049L106.934 64.6537Z" fill="#E9EAED"/>
<path d="M46.7598 106.438L45.6097 112.85L48.1742 113.31L49.3244 106.898L46.7598 106.438Z" fill="#E9EAED"/>
<path d="M46.7598 106.438L45.6097 112.85L48.1742 113.31L49.3244 106.898L46.7598 106.438Z" fill="#E9EAED"/>
<path d="M65.7666 0.653184L64.6165 7.06455L67.1811 7.5246L68.3312 1.11323L65.7666 0.653184Z" fill="#E9EAED"/>
</svg>
