<svg width="64" height="79" viewBox="0 0 64 79" fill="none" xmlns="http://www.w3.org/2000/svg">
<path d="M61.7934 78.2597C63.0119 78.2597 63.9996 77.272 63.9996 76.0535C63.9996 74.8351 63.0119 73.8473 61.7934 73.8473C60.575 73.8473 59.5872 74.8351 59.5872 76.0535C59.5872 77.272 60.575 78.2597 61.7934 78.2597Z" fill="#E9EAED"/>
<path d="M61.7934 63.4883C63.0119 63.4883 63.9996 62.5006 63.9996 61.2821C63.9996 60.0637 63.0119 59.0759 61.7934 59.0759C60.575 59.0759 59.5872 60.0637 59.5872 61.2821C59.5872 62.5006 60.575 63.4883 61.7934 63.4883Z" fill="#E9EAED"/>
<path d="M61.7934 48.7268C63.0119 48.7268 63.9996 47.7391 63.9996 46.5206C63.9996 45.3022 63.0119 44.3144 61.7934 44.3144C60.575 44.3144 59.5872 45.3022 59.5872 46.5206C59.5872 47.7391 60.575 48.7268 61.7934 48.7268Z" fill="#E9EAED"/>
<path d="M59.5774 31.7492C59.5774 32.9726 60.5702 33.9554 61.7836 33.9554C62.997 33.9554 63.9898 32.9626 63.9898 31.7492C63.9898 30.5358 62.997 29.543 61.7836 29.543C60.5702 29.543 59.5774 30.5358 59.5774 31.7492Z" fill="#E9EAED"/>
<path d="M59.5774 16.9776C59.5774 18.2011 60.5702 19.1838 61.7836 19.1838C62.997 19.1838 63.9898 18.1911 63.9898 16.9776C63.9898 15.7642 62.997 14.7715 61.7836 14.7715C60.5702 14.7715 59.5774 15.7642 59.5774 16.9776Z" fill="#E9EAED"/>
<path d="M61.7934 4.41239C63.0119 4.41239 63.9996 3.42465 63.9996 2.2062C63.9996 0.987751 63.0119 0 61.7934 0C60.575 0 59.5872 0.987751 59.5872 2.2062C59.5872 3.42465 60.575 4.41239 61.7934 4.41239Z" fill="#E9EAED"/>
<path d="M49.8693 78.2597C51.0877 78.2597 52.0755 77.272 52.0755 76.0535C52.0755 74.8351 51.0877 73.8473 49.8693 73.8473C48.6508 73.8473 47.6631 74.8351 47.6631 76.0535C47.6631 77.272 48.6508 78.2597 49.8693 78.2597Z" fill="#E9EAED"/>
<path d="M49.8693 63.4883C51.0877 63.4883 52.0755 62.5006 52.0755 61.2821C52.0755 60.0637 51.0877 59.0759 49.8693 59.0759C48.6508 59.0759 47.6631 60.0637 47.6631 61.2821C47.6631 62.5006 48.6508 63.4883 49.8693 63.4883Z" fill="#E9EAED"/>
<path d="M49.8693 48.7268C51.0877 48.7268 52.0755 47.7391 52.0755 46.5206C52.0755 45.3022 51.0877 44.3144 49.8693 44.3144C48.6508 44.3144 47.6631 45.3022 47.6631 46.5206C47.6631 47.7391 48.6508 48.7268 49.8693 48.7268Z" fill="#E9EAED"/>
<path d="M47.6631 31.7492C47.6631 32.9726 48.6559 33.9554 49.8693 33.9554C51.0827 33.9554 52.0755 32.9626 52.0755 31.7492C52.0755 30.5358 51.0827 29.543 49.8693 29.543C48.6559 29.543 47.6631 30.5358 47.6631 31.7492Z" fill="#E9EAED"/>
<path d="M47.6631 16.9776C47.6631 18.2011 48.6559 19.1838 49.8693 19.1838C51.0827 19.1838 52.0755 18.1911 52.0755 16.9776C52.0755 15.7642 51.0827 14.7715 49.8693 14.7715C48.6559 14.7715 47.6631 15.7642 47.6631 16.9776Z" fill="#E9EAED"/>
<path d="M49.8693 4.41239C51.0877 4.41239 52.0755 3.42465 52.0755 2.2062C52.0755 0.987751 51.0877 0 49.8693 0C48.6508 0 47.6631 0.987751 47.6631 2.2062C47.6631 3.42465 48.6508 4.41239 49.8693 4.41239Z" fill="#E9EAED"/>
<path d="M35.7508 76.0535C35.7508 77.277 36.7435 78.2597 37.957 78.2597C39.1704 78.2597 40.1632 77.2669 40.1632 76.0535C40.1632 74.8401 39.1704 73.8473 37.957 73.8473C36.7435 73.8473 35.7508 74.8401 35.7508 76.0535Z" fill="#E9EAED"/>
<path d="M35.7508 61.2821C35.7508 62.5055 36.7435 63.4883 37.957 63.4883C39.1704 63.4883 40.1632 62.4955 40.1632 61.2821C40.1632 60.0687 39.1704 59.0759 37.957 59.0759C36.7435 59.0759 35.7508 60.0687 35.7508 61.2821Z" fill="#E9EAED"/>
<path d="M35.7508 46.5206C35.7508 47.7441 36.7435 48.7268 37.957 48.7268C39.1704 48.7268 40.1632 47.734 40.1632 46.5206C40.1632 45.3072 39.1704 44.3144 37.957 44.3144C36.7435 44.3144 35.7508 45.3072 35.7508 46.5206Z" fill="#E9EAED"/>
<path d="M35.7508 31.7492C35.7508 32.9726 36.7435 33.9554 37.957 33.9554C39.1704 33.9554 40.1632 32.9626 40.1632 31.7492C40.1632 30.5358 39.1704 29.543 37.957 29.543C36.7435 29.543 35.7508 30.5358 35.7508 31.7492Z" fill="#E9EAED"/>
<path d="M35.7508 16.9776C35.7508 18.2011 36.7435 19.1838 37.957 19.1838C39.1704 19.1838 40.1632 18.1911 40.1632 16.9776C40.1632 15.7642 39.1704 14.7715 37.957 14.7715C36.7435 14.7715 35.7508 15.7642 35.7508 16.9776Z" fill="#E9EAED"/>
<path d="M35.7508 2.2062C35.7508 3.42963 36.7435 4.41239 37.957 4.41239C39.1704 4.41239 40.1632 3.41961 40.1632 2.2062C40.1632 0.992792 39.1704 0 37.957 0C36.7435 0 35.7508 0.992792 35.7508 2.2062Z" fill="#E9EAED"/>
<path d="M26.0426 78.2597C27.2611 78.2597 28.2488 77.272 28.2488 76.0535C28.2488 74.8351 27.2611 73.8473 26.0426 73.8473C24.8242 73.8473 23.8365 74.8351 23.8365 76.0535C23.8365 77.272 24.8242 78.2597 26.0426 78.2597Z" fill="#E9EAED"/>
<path d="M26.0426 63.4883C27.2611 63.4883 28.2488 62.5006 28.2488 61.2821C28.2488 60.0637 27.2611 59.0759 26.0426 59.0759C24.8242 59.0759 23.8365 60.0637 23.8365 61.2821C23.8365 62.5006 24.8242 63.4883 26.0426 63.4883Z" fill="#E9EAED"/>
<path d="M26.0426 48.7268C27.2611 48.7268 28.2488 47.7391 28.2488 46.5206C28.2488 45.3022 27.2611 44.3144 26.0426 44.3144C24.8242 44.3144 23.8365 45.3022 23.8365 46.5206C23.8365 47.7391 24.8242 48.7268 26.0426 48.7268Z" fill="#E9EAED"/>
<path d="M23.8365 31.7492C23.8365 32.9726 24.8292 33.9554 26.0426 33.9554C27.2561 33.9554 28.2488 32.9626 28.2488 31.7492C28.2488 30.5358 27.2561 29.543 26.0426 29.543C24.8292 29.543 23.8365 30.5358 23.8365 31.7492Z" fill="#E9EAED"/>
<path d="M23.8365 16.9776C23.8365 18.2011 24.8292 19.1838 26.0426 19.1838C27.2561 19.1838 28.2488 18.1911 28.2488 16.9776C28.2488 15.7642 27.2561 14.7715 26.0426 14.7715C24.8292 14.7715 23.8365 15.7642 23.8365 16.9776Z" fill="#E9EAED"/>
<path d="M26.0426 4.41239C27.2611 4.41239 28.2488 3.42465 28.2488 2.2062C28.2488 0.987751 27.2611 0 26.0426 0C24.8242 0 23.8365 0.987751 23.8365 2.2062C23.8365 3.42465 24.8242 4.41239 26.0426 4.41239Z" fill="#E9EAED"/>
<path d="M14.1303 78.2597C15.3487 78.2597 16.3365 77.272 16.3365 76.0535C16.3365 74.8351 15.3487 73.8473 14.1303 73.8473C12.9118 73.8473 11.9241 74.8351 11.9241 76.0535C11.9241 77.272 12.9118 78.2597 14.1303 78.2597Z" fill="#E9EAED"/>
<path d="M14.1303 63.4883C15.3487 63.4883 16.3365 62.5006 16.3365 61.2821C16.3365 60.0637 15.3487 59.0759 14.1303 59.0759C12.9118 59.0759 11.9241 60.0637 11.9241 61.2821C11.9241 62.5006 12.9118 63.4883 14.1303 63.4883Z" fill="#E9EAED"/>
<path d="M14.1303 48.7268C15.3487 48.7268 16.3365 47.7391 16.3365 46.5206C16.3365 45.3022 15.3487 44.3144 14.1303 44.3144C12.9118 44.3144 11.9241 45.3022 11.9241 46.5206C11.9241 47.7391 12.9118 48.7268 14.1303 48.7268Z" fill="#E9EAED"/>
<path d="M11.9241 31.7492C11.9241 32.9726 12.9169 33.9554 14.1303 33.9554C15.3437 33.9554 16.3365 32.9626 16.3365 31.7492C16.3365 30.5358 15.3437 29.543 14.1303 29.543C12.9169 29.543 11.9241 30.5358 11.9241 31.7492Z" fill="#E9EAED"/>
<path d="M11.9241 16.9776C11.9241 18.2011 12.9169 19.1838 14.1303 19.1838C15.3437 19.1838 16.3365 18.1911 16.3365 16.9776C16.3365 15.7642 15.3437 14.7715 14.1303 14.7715C12.9169 14.7715 11.9241 15.7642 11.9241 16.9776Z" fill="#E9EAED"/>
<path d="M14.1303 4.41239C15.3487 4.41239 16.3365 3.42465 16.3365 2.2062C16.3365 0.987751 15.3487 0 14.1303 0C12.9118 0 11.9241 0.987751 11.9241 2.2062C11.9241 3.42465 12.9118 4.41239 14.1303 4.41239Z" fill="#E9EAED"/>
<path d="M0 76.0535C0 77.277 0.992784 78.2597 2.20619 78.2597C3.4196 78.2597 4.41238 77.2669 4.41238 76.0535C4.41238 74.8401 3.4196 73.8473 2.20619 73.8473C0.992784 73.8473 0 74.8401 0 76.0535Z" fill="#E9EAED"/>
<path d="M0 61.2821C0 62.5055 0.992784 63.4883 2.20619 63.4883C3.4196 63.4883 4.41238 62.4955 4.41238 61.2821C4.41238 60.0687 3.4196 59.0759 2.20619 59.0759C0.992784 59.0759 0 60.0687 0 61.2821Z" fill="#E9EAED"/>
<path d="M0 46.5206C0 47.7441 0.992784 48.7268 2.20619 48.7268C3.4196 48.7268 4.41238 47.734 4.41238 46.5206C4.41238 45.3072 3.4196 44.3144 2.20619 44.3144C0.992784 44.3144 0 45.3072 0 46.5206Z" fill="#E9EAED"/>
<path d="M0 31.7492C0 32.9726 0.992784 33.9554 2.20619 33.9554C3.4196 33.9554 4.41238 32.9626 4.41238 31.7492C4.41238 30.5358 3.4196 29.543 2.20619 29.543C0.992784 29.543 0 30.5358 0 31.7492Z" fill="#E9EAED"/>
<path d="M0 16.9776C0 18.2011 0.992784 19.1838 2.20619 19.1838C3.4196 19.1838 4.41238 18.1911 4.41238 16.9776C4.41238 15.7642 3.4196 14.7715 2.20619 14.7715C0.992784 14.7715 0 15.7642 0 16.9776Z" fill="#E9EAED"/>
<path d="M0 2.2062C0 3.42963 0.992784 4.41239 2.20619 4.41239C3.4196 4.41239 4.41238 3.41961 4.41238 2.2062C4.41238 0.992792 3.4196 0 2.20619 0C0.992784 0 0 0.992792 0 2.2062Z" fill="#E9EAED"/>
</svg>
