<svg width="164" height="32" viewBox="0 0 164 32" fill="none" xmlns="http://www.w3.org/2000/svg">
<g clip-path="url(#clip0_116_553)">
<path d="M22.4763 25.6218L23.7757 27.8745C22.9711 28.424 22.0103 28.758 20.9645 28.758H5.41935C2.63387 28.758 0.367188 26.4899 0.367188 23.7059V5.05216C0.367437 2.26643 2.63387 0 5.41935 0H20.9645C23.75 0 26.0167 2.26643 26.0167 5.05216V5.26532C24.4166 4.38328 22.6009 3.88616 20.7187 3.88616C18.8058 3.88616 16.9213 4.39225 15.2611 5.35033C10.035 8.36916 8.23774 15.0765 11.2533 20.3024C13.2024 23.6785 16.842 25.7751 20.7486 25.7751C21.3317 25.7751 21.9056 25.7143 22.4763 25.6218ZM28.8674 10.1337C31.4572 14.618 29.9148 20.3722 25.4305 22.9622C20.9463 25.552 15.1896 24.0095 12.5998 19.5253C10.0115 15.041 11.5532 9.28834 16.0382 6.69857C20.5225 4.11004 26.2774 5.64875 28.8674 10.1337ZM14.9909 11.1235C14.9909 11.2389 15.0462 11.2982 15.1617 11.2982C15.2779 11.2982 15.3372 11.2406 15.3372 11.1235V9.62665C15.3372 9.50973 15.2779 9.45289 15.1617 9.45289C15.0465 9.45289 14.9909 9.50973 14.9909 9.62665V11.1235ZM26.1301 11.1235C26.1301 11.2389 26.1864 11.2982 26.3016 11.2982C26.4155 11.2982 26.4746 11.2406 26.4746 11.1235V9.62665C26.4746 9.50973 26.4155 9.45289 26.3016 9.45289C26.1862 9.45289 26.1301 9.50973 26.1301 9.62665V11.1235ZM25.7252 11.0644V9.70269C25.7252 9.50998 25.7858 9.36438 25.8952 9.26167C25.9558 9.20857 26.0408 9.20707 26.1106 9.1804C23.6575 6.85164 19.8897 6.26877 16.8158 8.04406C16.2653 8.36293 15.7819 8.75458 15.3402 9.17591C15.4182 9.20084 15.5017 9.20533 15.567 9.26316C15.6825 9.36563 15.7433 9.51222 15.7433 9.70418V11.0666C15.7433 11.2434 15.6825 11.386 15.567 11.4877C15.4524 11.5902 15.3187 11.6425 15.1632 11.6425C15.0076 11.6425 14.874 11.5902 14.7571 11.4877C14.6471 11.386 14.5863 11.2449 14.5863 11.0666V9.99163C12.6684 12.4373 12.2994 15.8969 13.9473 18.751C14.238 19.2518 14.5863 19.704 14.963 20.1169V18.0192H15.3669V20.4904C17.8193 22.8101 21.581 23.39 24.6552 21.617C25.1972 21.3058 25.6679 20.9261 26.1079 20.5148V18.021H26.5085V20.0825C28.7356 17.6261 29.2666 13.9359 27.5225 10.9156C27.3372 10.5922 27.1066 10.3122 26.8847 10.026V11.0681C26.8847 11.2449 26.8241 11.3877 26.7117 11.4892C26.5948 11.5917 26.4597 11.644 26.3081 11.644C26.15 11.644 26.0149 11.5917 25.8997 11.4892C25.7858 11.386 25.7252 11.2434 25.7252 11.0644ZM27.7924 22.3853L23.7545 24.7173L26.8635 30.1033L30.9015 27.7715L27.7924 22.3853ZM31.3191 28.5015L27.2794 30.8335C27.9231 31.9521 29.3501 32.3303 30.4642 31.6866C31.5816 31.0442 31.9643 29.6171 31.3191 28.5015ZM19.0788 9.1076H18.6751V11.6413H19.0788V9.1076ZM19.2792 13.718C19.3964 13.8212 19.4522 13.9668 19.4522 14.1583V15.5215C19.4522 15.7 19.3961 15.8426 19.2792 15.9428C19.164 16.046 19.0289 16.0976 18.8771 16.0976C18.7237 16.0976 18.5841 16.046 18.4717 15.9428C18.358 15.8426 18.3017 15.6997 18.3017 15.5215V14.1583C18.3017 13.9668 18.358 13.8212 18.4717 13.718C18.5824 13.6155 18.7237 13.5632 18.8771 13.5632C19.0289 13.5632 19.164 13.6155 19.2792 13.718ZM19.0516 14.0822C19.0516 13.9668 18.994 13.9092 18.8801 13.9092C18.7646 13.9092 18.7085 13.9668 18.7085 14.0822V15.5815C18.7085 15.697 18.7649 15.7543 18.8801 15.7543C18.9937 15.7543 19.0516 15.697 19.0516 15.5815V14.0822ZM19.2792 18.1743C19.3964 18.2743 19.4522 18.4231 19.4522 18.6146V19.9778C19.4522 20.1538 19.3961 20.2964 19.2792 20.3984C19.164 20.5001 19.0289 20.5547 18.8771 20.5547C18.7237 20.5547 18.5841 20.5031 18.4717 20.3984C18.358 20.2996 18.3017 20.1553 18.3017 19.9778V18.6146C18.3017 18.4231 18.358 18.2745 18.4717 18.1743C18.5824 18.0726 18.7237 18.0195 18.8771 18.0195C19.0289 18.0195 19.164 18.0726 19.2792 18.1743ZM19.0516 18.5385C19.0516 18.4231 18.994 18.3655 18.8801 18.3655C18.7646 18.3655 18.7085 18.4231 18.7085 18.5385V20.0354C18.7085 20.1508 18.7649 20.2084 18.8801 20.2084C18.9937 20.2084 19.0516 20.1508 19.0516 20.0354V18.5385ZM15.5683 13.718C15.6807 13.8212 15.7413 13.9668 15.7413 14.1583V15.5215C15.7413 15.7 15.6807 15.8426 15.5683 15.9428C15.4521 16.046 15.3187 16.0976 15.1647 16.0976C15.0076 16.0976 14.8737 16.046 14.7571 15.9428C14.6454 15.8426 14.5878 15.6997 14.5878 15.5215V14.1583C14.5878 13.9668 14.6454 13.8212 14.7571 13.718C14.874 13.6155 15.0076 13.5632 15.1647 13.5632C15.3172 13.5632 15.4509 13.6155 15.5683 13.718ZM15.3399 14.0822C15.3399 13.9668 15.2816 13.9092 15.1662 13.9092C15.0507 13.9092 14.9939 13.9668 14.9939 14.0822V15.5815C14.9939 15.697 15.051 15.7543 15.1662 15.7543C15.2813 15.7543 15.3399 15.697 15.3399 15.5815V14.0822ZM22.9953 9.26167C23.1093 9.36413 23.1683 9.50998 23.1683 9.70269V11.0644C23.1683 11.2419 23.1093 11.3847 22.9953 11.4865C22.8769 11.5889 22.7433 11.6413 22.5902 11.6413C22.4369 11.6413 22.3003 11.5889 22.1863 11.4865C22.0724 11.3847 22.0148 11.2434 22.0148 11.0644V9.70269C22.0148 9.50998 22.0724 9.36438 22.1863 9.26167C22.3003 9.15896 22.4369 9.1076 22.5902 9.1076C22.7435 9.1076 22.8772 9.1607 22.9953 9.26167ZM22.7662 9.62665C22.7662 9.50973 22.7056 9.45289 22.5902 9.45289C22.4763 9.45289 22.4187 9.50973 22.4187 9.62665V11.1235C22.4187 11.2389 22.4763 11.2982 22.5902 11.2982C22.7056 11.2982 22.7662 11.2406 22.7662 11.1235V9.62665ZM22.9953 13.718C23.1093 13.8212 23.1683 13.9668 23.1683 14.1583V15.5215C23.1683 15.7 23.1093 15.8426 22.9953 15.9428C22.8769 16.046 22.7433 16.0976 22.5902 16.0976C22.4369 16.0976 22.3003 16.046 22.1863 15.9428C22.0724 15.8426 22.0148 15.6997 22.0148 15.5215V14.1583C22.0148 13.9668 22.0724 13.8212 22.1863 13.718C22.3003 13.6155 22.4369 13.5632 22.5902 13.5632C22.7435 13.5632 22.8772 13.6155 22.9953 13.718ZM22.7662 14.0822C22.7662 13.9668 22.7056 13.9092 22.5902 13.9092C22.4763 13.9092 22.4187 13.9668 22.4187 14.0822V15.5815C22.4187 15.697 22.4763 15.7543 22.5902 15.7543C22.7056 15.7543 22.7662 15.697 22.7662 15.5815V14.0822ZM22.3883 20.5544H22.7921V18.0195H22.3883V20.5544ZM25.7252 14.1583C25.7252 13.9668 25.7858 13.8212 25.8952 13.718C26.0107 13.6155 26.1458 13.5632 26.3021 13.5632C26.4554 13.5632 26.5905 13.6155 26.706 13.718C26.8212 13.8212 26.8787 13.9668 26.8787 14.1583V15.5215C26.8787 15.7 26.8212 15.8426 26.706 15.9428C26.5905 16.046 26.4554 16.0976 26.3021 16.0976C26.1458 16.0976 26.0107 16.046 25.8952 15.9428C25.786 15.8426 25.7252 15.6997 25.7252 15.5215V14.1583ZM26.1301 15.5815C26.1301 15.697 26.1864 15.7543 26.3016 15.7543C26.4155 15.7543 26.4746 15.697 26.4746 15.5815V14.0822C26.4746 13.9668 26.4155 13.9092 26.3016 13.9092C26.1862 13.9092 26.1301 13.9668 26.1301 14.0822V15.5815Z" fill="#00CCFF"/>
</g>
<path d="M45.4883 23.9999V7.15188H56.4563V10.4399H49.5923V13.9919H54.7283V17.1839H49.5923V23.9999H45.4883Z" fill="white"/>
<path d="M58.6133 23.9999V10.6079H62.7173V23.9999H58.6133ZM60.6773 9.21588C59.2133 9.21588 58.2293 8.23188 58.2293 7.00788C58.2293 5.75988 59.2133 4.77588 60.6773 4.77588C62.1173 4.77588 63.1013 5.75988 63.1013 7.00788C63.1013 8.23188 62.1173 9.21588 60.6773 9.21588Z" fill="white"/>
<path d="M74.9314 23.9999V16.7279C74.9314 14.9039 73.9234 13.8959 72.3634 13.8959C70.8034 13.8959 69.7954 14.9039 69.7954 16.7279V23.9999H65.6914V10.6079H69.7954V12.3839C70.6114 11.2559 72.0514 10.4639 73.8514 10.4639C76.9474 10.4639 79.0114 12.5759 79.0114 16.1759V23.9999H74.9314Z" fill="white"/>
<path d="M81.0473 17.2799C81.0473 13.0559 83.6633 10.4159 86.9513 10.4159C88.9433 10.4159 90.3593 11.3279 91.0793 12.5039V10.6079H95.1833V23.9999H91.0793V22.1039C90.3353 23.2799 88.9193 24.1919 86.9273 24.1919C83.6633 24.1919 81.0473 21.5039 81.0473 17.2799ZM91.0793 17.3039C91.0793 15.1679 89.7113 13.9919 88.1513 13.9919C86.6153 13.9919 85.2233 15.1439 85.2233 17.2799C85.2233 19.4159 86.6153 20.6159 88.1513 20.6159C89.7113 20.6159 91.0793 19.4399 91.0793 17.3039Z" fill="white"/>
<path d="M97.3363 17.3039C97.3363 13.0799 100.12 10.4159 104.056 10.4159C107.416 10.4159 109.792 12.2639 110.488 15.4559H106.12C105.784 14.5199 105.112 13.9199 103.984 13.9199C102.52 13.9199 101.512 15.0719 101.512 17.3039C101.512 19.5359 102.52 20.6879 103.984 20.6879C105.112 20.6879 105.76 20.1359 106.12 19.1519H110.488C109.792 22.2479 107.416 24.1919 104.056 24.1919C100.12 24.1919 97.3363 21.5519 97.3363 17.3039Z" fill="white"/>
<path d="M113.332 19.3439V14.0159H111.7V10.6079H113.332V7.34388H117.436V10.6079H120.124V14.0159H117.436V19.3919C117.436 20.1839 117.772 20.5199 118.684 20.5199H120.148V23.9999H118.06C115.276 23.9999 113.332 22.8239 113.332 19.3439Z" fill="white"/>
<path d="M122.434 23.9999V10.6079H126.538V23.9999H122.434ZM124.498 9.21588C123.034 9.21588 122.05 8.23188 122.05 7.00788C122.05 5.75988 123.034 4.77588 124.498 4.77588C125.938 4.77588 126.922 5.75988 126.922 7.00788C126.922 8.23188 125.938 9.21588 124.498 9.21588Z" fill="white"/>
<path d="M128.24 10.6079H132.632L135.536 20.1599L138.44 10.6079H142.808L138.056 23.9999H132.992L128.24 10.6079Z" fill="white"/>
<path d="M150.439 13.7039C149.095 13.7039 148.063 14.5199 147.823 16.0079H152.959C152.959 14.5439 151.807 13.7039 150.439 13.7039ZM156.847 19.5599C156.199 22.1759 153.823 24.1919 150.487 24.1919C146.551 24.1919 143.719 21.5519 143.719 17.3039C143.719 13.0559 146.503 10.4159 150.487 10.4159C154.399 10.4159 157.159 13.0079 157.159 17.0879C157.159 17.4719 157.135 17.8799 157.087 18.2879H147.799C147.943 20.0399 149.023 20.8559 150.343 20.8559C151.495 20.8559 152.143 20.2799 152.479 19.5599H156.847Z" fill="white"/>
<path d="M163.668 21.9839C163.668 23.2079 162.684 24.1919 161.244 24.1919C159.78 24.1919 158.796 23.2079 158.796 21.9839C158.796 20.7119 159.78 19.7279 161.244 19.7279C162.684 19.7279 163.668 20.7119 163.668 21.9839Z" fill="white"/>
<defs>
<clipPath id="clip0_116_553">
<rect width="32" height="32" fill="white"/>
</clipPath>
</defs>
</svg>
