<svg width="45" height="36" viewBox="0 0 45 36" fill="none" xmlns="http://www.w3.org/2000/svg">
<path d="M29.0774 13.8462L31.2651 9.08312L36.0005 6.92311L31.2651 4.7631L29.0774 0L26.9728 4.7631L22.1543 6.92311L26.9728 9.08312L29.0774 13.8462Z" fill="#FF9E01"/>
<path d="M5.53848 19.3846L6.64618 14.9538L11.077 13.8461L6.64618 12.7384L5.53848 8.30762L4.43079 12.7384L0 13.8461L4.43079 14.9538L5.53848 19.3846Z" fill="#FF9E01"/>
<path d="M40.154 8.30762C37.1909 8.30762 35.0586 11.4092 36.4155 14.2338L28.0801 22.5692C26.6401 21.8769 25.3386 22.1815 24.5078 22.5692L21.7109 19.7723C21.9878 19.2461 22.1539 18.6369 22.1539 18C22.1539 15.7015 20.2985 13.8461 18.0001 13.8461C15.7016 13.8461 13.8462 15.7015 13.8462 18C13.8462 18.6369 14.0124 19.2461 14.2616 19.7723L5.92618 28.1077C5.40002 27.8585 4.79079 27.6923 4.15386 27.6923C1.85539 27.6923 0 29.5477 0 31.8462C0 34.1446 1.85539 36 4.15386 36C6.45233 36 8.30773 34.1446 8.30773 31.8462C8.30773 31.2093 8.14157 30.6 7.89234 30.0739L16.2278 21.7384C17.6678 22.4308 18.9693 22.1261 19.8001 21.7384L22.597 24.5354C22.3201 25.0615 22.1539 25.6708 22.1539 26.3077C22.1539 28.6062 24.0093 30.4616 26.3078 30.4616C28.6063 30.4616 30.4617 28.6062 30.4617 26.3077C30.4617 25.6708 30.2955 25.0615 30.0463 24.5354L38.3817 16.2C41.234 17.5846 44.3079 15.3969 44.3079 12.4615C44.3079 10.163 42.4525 8.30762 40.154 8.30762Z" fill="#FF9E01"/>
</svg>
