<svg width="37" height="37" viewBox="0 0 37 37" fill="none" xmlns="http://www.w3.org/2000/svg">
<path d="M33.5618 13.2236C33.3239 12.6515 33.5949 11.9922 34.17 11.7543C34.742 11.5164 35.4014 11.7874 35.6393 12.3625C36.0849 13.4283 36.4281 14.5393 36.6569 15.6895C36.8827 16.8125 37.0002 17.9747 37.0002 19.164C37.0002 23.6682 35.3141 27.778 32.5381 30.9002C29.732 34.0555 25.8119 36.1993 21.392 36.7141C20.7748 36.7834 20.2178 36.3408 20.1455 35.7235C20.0763 35.1063 20.5188 34.5493 21.1361 34.4771C24.9869 34.0284 28.4072 32.1587 30.8581 29.4038C33.2788 26.682 34.7481 23.0961 34.7481 19.164C34.7481 18.1252 34.6457 17.1106 34.45 16.129C34.2452 15.1144 33.9472 14.1449 33.5618 13.2236ZM25.6824 14.9217C25.6764 14.9578 25.6613 14.994 25.6433 15.0271C25.6192 15.1084 25.6011 15.2017 25.5951 15.3071C25.5951 15.3161 25.5951 15.3282 25.5951 15.3372L25.1284 22.1718C25.2007 22.3916 25.297 22.5602 25.4175 22.6686C25.5289 22.7709 25.6704 22.8251 25.848 22.8312C25.8601 22.8312 25.8751 22.8312 25.8872 22.8312L27.8472 22.9666C27.8502 22.9666 27.8562 22.9666 27.8623 22.9666C28.1664 23.0028 28.3922 22.9365 28.5518 22.777C28.7324 22.5963 28.8498 22.2922 28.9131 21.8797V21.8737L29.9307 15.7497C29.9307 15.7406 29.9307 15.7286 29.9337 15.7196C30 15.3733 29.9367 15.1385 29.7742 14.994C29.5845 14.8284 29.2623 14.741 28.8348 14.7109C28.8257 14.7109 28.8167 14.7109 28.8047 14.7109L26.5977 14.5604V14.5574C26.2605 14.5333 26.0076 14.5845 25.848 14.7109C25.7758 14.7651 25.7246 14.8344 25.6824 14.9217ZM23.0058 22.3344C22.9606 22.2862 22.9335 22.226 22.9215 22.1597L20.1606 16.2766C19.8504 15.6684 19.5373 15.6323 19.2182 15.7918C18.9924 15.9062 18.7515 16.0989 18.5076 16.2916C18.3601 16.409 18.2156 16.5235 18.0921 16.6138L17.5201 17.0233L17.517 17.0263C17.1015 17.3153 16.6469 17.4568 16.2224 17.4628C15.9424 17.4689 15.6774 17.4147 15.4396 17.3033C15.1957 17.1919 14.9849 17.0263 14.8344 16.8065C14.6718 16.5716 14.5724 16.2796 14.5664 15.9454C14.5664 15.9454 14.6417 15.7376 14.6567 15.7226L16.5174 13.7956C16.1561 13.7655 15.831 13.7926 15.5239 13.8649C15.0542 13.9763 14.6086 14.1961 14.1208 14.4851C14.0636 14.5243 13.9944 14.5423 13.9221 14.5393L11.941 14.4038L11.6851 18.1463L11.5285 20.5399L12.6816 20.6182C12.793 20.6242 12.8954 20.6905 12.9436 20.7958L14.2051 23.3912C14.3888 23.7705 14.5514 24.0957 14.7681 24.3185C14.9699 24.5293 15.2469 24.6678 15.6834 24.7099C15.846 24.725 16.0056 24.7099 16.1561 24.6587C16.2495 24.6286 16.3428 24.5835 16.4361 24.5232L15.6262 22.7258C15.554 22.5662 15.6262 22.3795 15.7858 22.3103C15.9454 22.238 16.1321 22.3103 16.2013 22.4699L17.0805 24.4269C17.4418 24.6437 17.779 24.725 18.0891 24.6828C18.3721 24.6407 18.6461 24.4931 18.9141 24.2372L17.6164 21.8556C17.5351 21.7051 17.5893 21.5124 17.7429 21.4281C17.8934 21.3468 18.0861 21.401 18.1704 21.5546L19.5373 24.0626C19.7993 24.1921 20.0552 24.2342 20.3051 24.183C20.5429 24.1348 20.7898 23.9994 21.0397 23.7735L19.8324 21.0668C19.7601 20.9072 19.8324 20.7175 19.9919 20.6483C20.1515 20.576 20.3412 20.6483 20.4105 20.8109L21.663 23.611C21.8436 23.7314 22.0574 23.7735 22.2651 23.7555C22.4488 23.7374 22.6294 23.6712 22.78 23.5688C22.9245 23.4695 23.0449 23.334 23.1051 23.1774C23.1744 23.0058 23.1834 22.801 23.1051 22.5722L23.0058 22.3344ZM24.5865 22.5271L23.7465 22.4699C23.8368 22.8101 23.8097 23.1232 23.7013 23.3972C23.5899 23.6772 23.3912 23.909 23.1473 24.0776C22.9094 24.2402 22.6264 24.3456 22.3314 24.3727C22.0453 24.3998 21.7533 24.3546 21.4853 24.2222C21.1451 24.5323 20.7928 24.7189 20.4376 24.7942C20.0793 24.8665 19.724 24.8213 19.3717 24.6708C19.0044 25.0261 18.61 25.2398 18.1854 25.3C17.7549 25.3633 17.3093 25.2669 16.8456 25.011C16.6891 25.1164 16.5265 25.1977 16.3579 25.2549C16.12 25.3362 15.8761 25.3633 15.6232 25.3362C15.018 25.276 14.6236 25.0712 14.3195 24.7581C14.0275 24.46 13.8438 24.0927 13.6361 23.6652L12.4558 21.2354L11.4171 21.1632C11.3358 21.4612 11.2124 21.5214 11.0437 21.7141C10.6644 22.1387 10.3362 22.3615 9.7521 22.3283C8.90304 22.2802 7.39762 22.3916 6.90987 21.7473C6.66298 21.4191 6.51545 20.9072 6.48835 20.1636C6.48835 20.1545 6.48835 20.1455 6.48534 20.1365L6.41609 14.3015C6.36491 13.6692 6.50039 13.2326 6.77137 12.9496C7.04535 12.6606 7.43977 12.5492 7.90946 12.5612C7.92452 12.5612 7.93656 12.5612 7.94861 12.5612L10.3452 12.7268V12.7298C10.7969 12.7539 11.1822 12.8593 11.4653 13.07C11.6941 13.2386 11.8476 13.4675 11.9169 13.7685L13.8709 13.901C14.3858 13.6029 14.8615 13.3771 15.3793 13.2507C15.8882 13.1302 16.4271 13.1122 17.0594 13.2326L17.773 12.498C17.785 12.4829 17.797 12.4709 17.8151 12.4588C18.0138 12.2932 18.2336 12.1638 18.4655 12.0614C18.7093 11.953 18.9683 11.8777 19.2362 11.8266C19.6608 11.7483 20.1033 11.7362 20.5309 11.7724C21.0156 11.8145 21.4823 11.9199 21.8828 12.0524C22.6475 12.3113 23.2888 12.8292 23.909 13.332C24.0475 13.4434 24.186 13.5578 24.3516 13.6812C24.3577 13.6842 24.3637 13.6903 24.3697 13.6933L25.273 14.3918C25.3241 14.3286 25.3844 14.2714 25.4506 14.2202C25.7396 13.9944 26.1341 13.901 26.6338 13.9341V13.9311L28.8408 14.0817C28.8498 14.0817 28.8589 14.0817 28.8649 14.0847C29.4309 14.1208 29.8825 14.2563 30.1836 14.5243C30.5178 14.8223 30.6563 15.2499 30.5449 15.84C30.5449 15.846 30.5419 15.849 30.5419 15.8551L29.5243 21.9731C29.443 22.521 29.2653 22.9426 28.9853 23.2226C28.6872 23.5236 28.2928 23.6531 27.79 23.5959L25.83 23.4604H25.8269C25.4867 23.4544 25.2037 23.343 24.9749 23.1322C24.8183 22.9817 24.6858 22.777 24.5865 22.5271ZM8.82777 19.0435C9.06261 19.0586 9.24025 19.2633 9.2252 19.5012C9.21014 19.736 9.00541 19.9167 8.76755 19.8986C8.53271 19.8835 8.35507 19.6788 8.37012 19.444C8.38518 19.2091 8.58991 19.0255 8.82777 19.0435ZM27.4106 20.3141C27.6455 20.3292 27.8231 20.5339 27.8081 20.7687C27.793 21.0036 27.5883 21.1842 27.3504 21.1662C27.1156 21.1511 26.9349 20.9464 26.953 20.7115C26.9681 20.4767 27.1728 20.299 27.4106 20.3141ZM11.107 17.3725L11.3238 14.2292C11.3358 14.0636 11.2304 13.8559 11.0979 13.7565C10.9233 13.627 10.6523 13.5608 10.3151 13.5427L7.90946 13.3801C7.68967 13.3651 7.38859 13.4072 7.22902 13.5728C7.08149 13.7264 7.01224 14.0064 7.04837 14.449C7.04837 14.458 7.04837 14.4671 7.04837 14.4761L7.11761 19.9408V19.9498C7.13869 20.555 7.24407 20.9494 7.41268 21.1752C7.56322 21.3769 10.1254 21.7894 10.568 21.2896C10.7427 21.0909 10.845 20.7717 10.8842 20.3502H10.8812L11.0979 17.3665L11.107 17.3725ZM32.2009 7.30729L24.9086 8.614L26.4201 6.47028C24.1168 4.01344 21.5546 3.13127 18.4926 4.04355C21.7382 0.021076 26.0528 0.0150542 29.4279 2.18888L30.9664 0L32.2009 7.30729ZM11.7934 27.5281L10.282 29.6718C12.5853 32.1286 15.1475 33.0108 18.2095 32.0985C14.9608 36.118 10.6463 36.124 7.27117 33.9502L5.72962 36.139L4.49819 28.8348L11.7934 27.5281ZM3.76656 24.5503C4.03753 25.1104 3.80269 25.7818 3.24267 26.0497C2.68265 26.3207 2.01124 26.0859 1.74327 25.5259C1.17724 24.3516 0.737655 23.1051 0.442593 21.7984C0.153553 20.5249 0 19.2121 0 17.8723C0 13.4614 1.61983 9.42391 4.29947 6.32576C7.01224 3.18546 10.8119 1.01164 15.1144 0.385387C15.7286 0.298073 16.2977 0.725611 16.385 1.33982C16.4723 1.95403 16.0447 2.52308 15.4305 2.61039C11.679 3.15535 8.3641 5.05218 5.99457 7.79204C3.66419 10.4958 2.2521 14.0154 2.2521 17.8723C2.2521 19.0616 2.38458 20.2117 2.63147 21.3077C2.8904 22.4367 3.27278 23.5236 3.76656 24.5503Z" fill="#AE1AFF"/>
</svg>
